<svg xmlns="http://www.w3.org/2000/svg" viewBox="0 0 1920 191" preserveAspectRatio="none">
    <g class="n2-ss-divider-start" yoyo="1">
        <path fill='#000000'
              d="M1920,102 C1808,102,1811,137,1645,180 C1479,223,1380.24253,91,1190,91 C1057,91,946,191,796,191 C584.512514,191,547,144,380,83 C217,17,132,144,0,144 L0,-2 L1920,-2 L1920,102Z"
              ease="easeInOutSine" duration="5"></path>
    </g>
    <g class="n2-ss-divider-end">
        <path fill='#000000'
              d="M1920,22 C1808,22,1663,120,1490,120 C1328,120,1271,22,1080,22 C924,22,840,144,716,144 C565,144,524,23,377,22 C230,22,132,180,0,180 L0,-2 L1920,-2 L1920,22Z"></path>
    </g>
</svg>
