<svg xmlns="http://www.w3.org/2000/svg" viewBox="0 0 1920 120" preserveAspectRatio="none">

    <g class="n2-ss-divider-start" yoyo="1">
        <path fill="#000000" duration="4" ease="easeInOutSine"
              d="M1920,5 C1808,5,1699,109,1526,109 C1365,109,1271,13,1080,13 C925,13,840.152,62,716,62 C565,62,521,13,377,13 C229,13,132,103,0,103 L0,0 L1920,0 L1920,5Z"></path>
        <path fill="#000000" opacity="0.2" duration="3.8" delay="0.5" ease="easeInOutSine"
              d="M1920,106 C1753.761,106,1659.906,10,1512,10 C1352,10,1263,75,1080,75 C934,75,837,4,669,4 C478,4,424,120,196,120 C88,120,0,93,0,93 L0,-2 L1920,-2 L1920,106Z"></path>
    </g>
    <g class="n2-ss-divider-end">
        <path fill="#000000" opacity="0.2"
              d="M1920,106 C1753.761,106,1659.906,10,1512,10 C1352,10,1263,75,1080,75 C934,75,837,4,669,4 C478,4,424,120,196,120 C88,120,0,93,0,93 L0,0 L1920,0 L1920,106Z"></path>
        <path fill="#000000"
              d="M1920,5 C1808,5,1699,109,1526,109 C1365,109,1271,13,1080,13 C925,13,840.152,62,716,62 C565,62,521,13,377,13 C229,13,132,103,0,103 L0,-2 L1920,-2 L1920,5Z"></path>
    </g>
</svg>