<svg xmlns="http://www.w3.org/2000/svg" viewBox="0 0 1920 316" preserveAspectRatio="none">
    <g class="n2-ss-divider-start" yoyo="1">
        <path fill="#000010" duration="12" ease="easeInOutSine"
              d="M1920,120 C1920,120,1777,175,1571,175 C1365,175,1221,41,946,41 C661,41,549,226,285,226 C137,226,0,120,0,120 L0,-2 L1920,-2 L1920,120Z"
              opacity="0.5"></path>
        <path fill="#000010" duration="20" delay="0.5" ease="easeInOutSine"
              d="M1920,5 C1808,5,1540,82,1367,82 C1193,82,1058,14,951,14 C844,14,779,55,701,55 C622,55,594,19,470,19 C319,19,253,109,157,109 C61,109,0,38,0,38 L0,-2 L1920,-2 L1920,5Z"
              opacity="0.5"></path>
        <path fill="#000010" duration="8" delay="1" ease="easeInOutSine"
              d="M1920,74 C1920,74,1812,106,1682,106 C1552,106,1426,27,1355,27 C1283,27,1159,126,1006,126 C853,126,748,27,670,27 C591,27,556,129,412,129 C268,129,224,40,128,40 C32,40,0,101,0,101 L0,-2 L1920,-2 L1920,74Z"
              opacity="0.5"></path>
        <path fill="#000000" d="M1920,0 L1920,110 C1560,-30,360,-30,0,110 L0,-4 L1920,-4Z"></path>
    </g>
    <g class="n2-ss-divider-end">
        <path fill="#000010"
              d="M1920,184 C1920,184,1776,75,1570,75 C1364,75,1200,231,925,231 C640,231,544,120,280,120 C132,120,0,196,0,196 L0,-2 L1920,-2 L1920,184Z"
              opacity="0.5"></path>
        <path fill="#000010"
              d="M1920,131 C1920,131,1839,56,1557,56 C1275,56,1315,131,1097,131 C879,131,801,26,723,26 C644,26,562,95,438,95 C287,95,298,34,202,34 C106,34,0,95,0,95 L0,-2 L1920,-2 L1920,131Z"
              opacity="0.5"></path>
        <path fill="#000010"
              d="M1920,74 C1920,74,1836,29,1706,29 C1576,29,1442,50,1371,50 C1299,50,1239,16,1086,16 C896,16,918,101,771,101 C639,101,574,31,412,29 C311,27,272,110,149,110 C26,110,0,101,0,101 L0,-2 L1920,-2 L1920,74Z"
              opacity="0.5"></path>
        <path fill="#000000" d="M1920,0 L1920,110 C1560,-30,360,-30,0,110 L0,-4 L1920,-4Z"></path>
    </g>
</svg>
